#!OML:ASF F:\VICON\USERDATA\INSTALL\rory3\rory3.ASF
:FULLY-SPECIFIED
:DEGREES
1960
root 6.25151 17.7253 4.3321 2.8893 -29.3393 -0.894188
lowerback 5.89039 -0.820907 -5.60404
upperback 2.16251 -1.3987 1.39908
thorax -0.895667 -0.730155 4.68938
lowerneck -22.3056 -6.40313 -9.8564
upperneck 15.9047 -8.08503 11.3237
head 9.58631 -3.15552 4.35738
rclavicle -2.75565e-014 -1.77912e-014
rhumerus -18.8699 6.93023 -82.3694
rradius 40.3125
rwrist 22.7326
rhand -13.0283 2.91092
rfingers 7.12502
rthumb 13.0659 -26.6598
lclavicle -2.75565e-014 -1.77912e-014
lhumerus -22.7407 -23.5359 86.4238
lradius 33.7672
lwrist -8.43681
lhand 3.76616 20.1194
lfingers 7.12502
lthumb 29.1924 47.8499
rfemur -19.6339 -3.39434 15.0898
rtibia 55.8489
rfoot 8.22882 11.0254
rtoes 13.5673
lfemur -16.5688 1.78446 -17.0799
ltibia 28.7944
lfoot -10.9142 -0.711179
ltoes -18.4701
1961
root 6.24807 17.7302 4.37937 2.63858 -29.7819 -0.872073
lowerback 5.62326 -0.846655 -5.54243
upperback 2.19752 -1.41498 1.31521
thorax -0.712608 -0.744292 4.56091
lowerneck -22.1786 -6.31692 -9.90186
upperneck 15.8304 -8.03768 11.6758
head 9.55363 -3.10458 4.4993
rclavicle 9.81499e-015 -5.96354e-016
rhumerus -18.3223 6.38478 -81.3001
rradius 41.1381
rwrist 22.1149
rhand -14.2536 3.5959
rfingers 7.12502
rthumb 11.8846 -26.0468
lclavicle 9.81499e-015 -5.96354e-016
lhumerus -22.0589 -23.0881 85.1097
lradius 34.1586
lwrist -7.63705
lhand 3.19185 20.4861
lfingers 7.12502
lthumb 28.6439 48.3105
rfemur -19.4077 -3.49593 14.8887
rtibia 56.0187
rfoot 8.72857 10.9885
rtoes 13.8697
lfemur -16.0357 1.7958 -17.1668
ltibia 28.7581
lfoot -11.1064 -0.280475
ltoes -18.2606
1962
root 6.24646 17.7324 4.4262 2.42053 -30.2368 -0.850965
lowerback 5.3959 -0.892981 -5.49037
upperback 2.14616 -1.46217 1.28589
thorax -0.635704 -0.768454 4.4986
lowerneck -21.2287 -6.31077 -10.8211
upperneck 15.1089 -8.05774 13.0156
head 9.2502 -3.07493 5.12596
rclavicle 2.60408e-014 4.27387e-015
rhumerus -17.853 5.89934 -80.1236
rradius 42.1133
rwrist 21.6354
rhand -15.0722 3.08509
rfingers 7.12502
rthumb 11.0951 -26.6016
lclavicle 2.60408e-014 4.27387e-015
lhumerus -21.4332 -22.4249 83.7885
lradius 34.6093
lwrist -6.98497
lhand 2.82467 20.7792
lfingers 7.12502
lthumb 28.293 48.6623
rfemur -19.2061 -3.61362 14.6506
rtibia 56.1884
rfoot 9.22032 11.0628
rtoes 14.5715
lfemur -15.5446 1.95791 -17.2731
ltibia 28.7383
lfoot -11.2956 0.0264197
ltoes -18.0218
1963
root 6.24198 17.7287 4.47432 2.1313 -30.7402 -0.737331
lowerback 5.16308 -0.969244 -5.59783
upperback 2.11555 -1.55635 1.2714
thorax -0.523537 -0.818684 4.54361
lowerneck -22.0589 -6.11083 -9.75485
upperneck 16.1042 -7.85563 11.7441
head 9.60391 -3.00512 4.53539
rclavicle -5.66288e-014 1.20265e-014
rhumerus -17.3194 5.25547 -78.8831
rradius 43.1393
rwrist 21.5296
rhand -15.5594 2.76211
rfingers 7.12502
rthumb 10.6252 -26.9493
lclavicle -5.66288e-014 1.20265e-014
lhumerus -20.7358 -21.5074 82.3588
lradius 35.0506
lwrist -6.45176
lhand 2.07389 21.1039
lfingers 7.12502
lthumb 27.5753 49.1039
rfemur -18.9625 -3.64535 14.3155
rtibia 56.3282
rfoot 9.60957 11.2282
rtoes 15.1438
lfemur -15.0099 2.29008 -17.4691
ltibia 28.7188
lfoot -11.5151 0.292597
ltoes -18.3496
1964
root 6.23617 17.7233 4.51381 1.78889 -31.0991 -0.615662
lowerback 5.0634 -1.08161 -5.76964
upperback 2.10992 -1.70833 1.2905
thorax -0.449177 -0.898041 4.66527
lowerneck -21.8255 -6.07439 -10.2299
upperneck 16.0143 -7.82106 12.4164
head 9.58189 -2.95779 4.86344
rclavicle -3.29237e-014 -9.93923e-017
rhumerus -16.7189 4.52715 -77.5684
rradius 44.1493
rwrist 21.4296
rhand -16.2403 2.84926
rfingers 7.12502
rthumb 9.96834 -26.8947
lclavicle -3.29237e-014 -9.93923e-017
lhumerus -19.9491 -20.3696 80.874
lradius 35.5831
lwrist -5.97892
lhand 1.38102 21.4422
lfingers 7.12502
lthumb 26.9125 49.5462
rfemur -18.6523 -3.74212 14.0051
rtibia 56.4116
rfoot 9.89101 11.3333
rtoes 15.4689
lfemur -14.4778 2.57034 -17.6444
ltibia 28.695
lfoot -11.7345 0.452464
ltoes -18.8428
